<svg xmlns="http://www.w3.org/2000/svg" width="1040" height="400" viewBox="0 0 1040 400" font-family="system-ui,-apple-system,'Segoe UI',sans-serif">
<rect width="1040" height="400" fill="#ffffff" rx="8"/>
<defs><marker id="arr" markerWidth="9" markerHeight="9" refX="7" refY="4.5" orient="auto"><path d="M0,0 L8,4.5 L0,9 z" fill="#64748b"/></marker></defs>
<text x="24" y="34" font-size="20" font-weight="700" fill="#1e293b">Proxmox-Ceph track (Cerberus) — section workflow</text>
<text x="24" y="56" font-size="12" fill="#64748b">Follow 00 → 07 in order. Scripts guard each stage; render builds the site guide.</text>
<rect x="32" y="88" width="96" height="64" rx="8" fill="#ede9fe" stroke="#7c3aed" stroke-width="1.5"/>
<text x="80.0" y="113.5" font-size="13" font-weight="700" fill="#1e293b" text-anchor="middle">00</text>
<text x="80.0" y="130.5" font-size="11" fill="#64748b" text-anchor="middle">overview</text>
<rect x="142" y="88" width="96" height="64" rx="8" fill="#ffffff" stroke="#cbd5e1" stroke-width="1.5"/>
<text x="190.0" y="113.5" font-size="13" font-weight="700" fill="#1e293b" text-anchor="middle">00a</text>
<text x="190.0" y="130.5" font-size="11" fill="#64748b" text-anchor="middle">bring-up</text>
<line x1="130" y1="120" x2="139" y2="120" stroke="#64748b" stroke-width="1.5" marker-end="url(#arr)"/>
<rect x="252" y="88" width="96" height="64" rx="8" fill="#ffffff" stroke="#cbd5e1" stroke-width="1.5"/>
<text x="300.0" y="113.5" font-size="13" font-weight="700" fill="#1e293b" text-anchor="middle">01</text>
<text x="300.0" y="130.5" font-size="11" fill="#64748b" text-anchor="middle">install</text>
<line x1="240" y1="120" x2="249" y2="120" stroke="#64748b" stroke-width="1.5" marker-end="url(#arr)"/>
<rect x="362" y="88" width="96" height="64" rx="8" fill="#ffffff" stroke="#cbd5e1" stroke-width="1.5"/>
<text x="410.0" y="113.5" font-size="13" font-weight="700" fill="#1e293b" text-anchor="middle">02</text>
<text x="410.0" y="130.5" font-size="11" fill="#64748b" text-anchor="middle">network</text>
<line x1="350" y1="120" x2="359" y2="120" stroke="#64748b" stroke-width="1.5" marker-end="url(#arr)"/>
<rect x="472" y="88" width="96" height="64" rx="8" fill="#ffffff" stroke="#cbd5e1" stroke-width="1.5"/>
<text x="520.0" y="113.5" font-size="13" font-weight="700" fill="#1e293b" text-anchor="middle">03</text>
<text x="520.0" y="130.5" font-size="11" fill="#64748b" text-anchor="middle">ceph</text>
<line x1="460" y1="120" x2="469" y2="120" stroke="#64748b" stroke-width="1.5" marker-end="url(#arr)"/>
<rect x="582" y="88" width="96" height="64" rx="8" fill="#ffffff" stroke="#cbd5e1" stroke-width="1.5"/>
<text x="630.0" y="113.5" font-size="13" font-weight="700" fill="#1e293b" text-anchor="middle">04</text>
<text x="630.0" y="130.5" font-size="11" fill="#64748b" text-anchor="middle">pools</text>
<line x1="570" y1="120" x2="579" y2="120" stroke="#64748b" stroke-width="1.5" marker-end="url(#arr)"/>
<rect x="692" y="88" width="96" height="64" rx="8" fill="#ffffff" stroke="#cbd5e1" stroke-width="1.5"/>
<text x="740.0" y="113.5" font-size="13" font-weight="700" fill="#1e293b" text-anchor="middle">05</text>
<text x="740.0" y="130.5" font-size="11" fill="#64748b" text-anchor="middle">ha</text>
<line x1="680" y1="120" x2="689" y2="120" stroke="#64748b" stroke-width="1.5" marker-end="url(#arr)"/>
<rect x="802" y="88" width="96" height="64" rx="8" fill="#ffffff" stroke="#cbd5e1" stroke-width="1.5"/>
<text x="850.0" y="113.5" font-size="13" font-weight="700" fill="#1e293b" text-anchor="middle">06</text>
<text x="850.0" y="130.5" font-size="11" fill="#64748b" text-anchor="middle">pbs</text>
<line x1="790" y1="120" x2="799" y2="120" stroke="#64748b" stroke-width="1.5" marker-end="url(#arr)"/>
<rect x="912" y="88" width="96" height="64" rx="8" fill="#ffffff" stroke="#cbd5e1" stroke-width="1.5"/>
<text x="960.0" y="113.5" font-size="13" font-weight="700" fill="#1e293b" text-anchor="middle">07</text>
<text x="960.0" y="130.5" font-size="11" fill="#64748b" text-anchor="middle">validation</text>
<line x1="900" y1="120" x2="909" y2="120" stroke="#64748b" stroke-width="1.5" marker-end="url(#arr)"/>
<rect x="32" y="200" width="150" height="56" rx="8" fill="#ccfbf1" stroke="#0d9488" stroke-width="1.5"/>
<text x="107.0" y="221.5" font-size="12" font-weight="700" fill="#1e293b" text-anchor="middle">variables.sh</text>
<text x="107.0" y="238.5" font-size="11" fill="#64748b" text-anchor="middle">single source</text>
<line x1="107" y1="200" x2="107" y2="152" stroke="#0d9488" stroke-width="1.5" stroke-dasharray="5,4" marker-end="url(#arr)"/>
<rect x="252" y="200" width="120" height="56" rx="8" fill="#ffffff" stroke="#cbd5e1" stroke-width="1.5"/>
<text x="312.0" y="221.5" font-size="12" font-weight="700" fill="#1e293b" text-anchor="middle">preflight.sh</text>
<text x="312.0" y="238.5" font-size="11" fill="#64748b" text-anchor="middle">before 01</text>
<line x1="312" y1="200" x2="300.0" y2="152" stroke="#0d9488" stroke-width="1.5" stroke-dasharray="5,4" marker-end="url(#arr)"/>
<rect x="392" y="200" width="120" height="56" rx="8" fill="#ffffff" stroke="#cbd5e1" stroke-width="1.5"/>
<text x="452.0" y="221.5" font-size="12" font-weight="700" fill="#1e293b" text-anchor="middle">net-verify.sh</text>
<text x="452.0" y="238.5" font-size="11" fill="#64748b" text-anchor="middle">section 02</text>
<line x1="452" y1="200" x2="410.0" y2="152" stroke="#0d9488" stroke-width="1.5" stroke-dasharray="5,4" marker-end="url(#arr)"/>
<rect x="700" y="200" width="130" height="56" rx="8" fill="#ffffff" stroke="#cbd5e1" stroke-width="1.5"/>
<text x="765.0" y="221.5" font-size="12" font-weight="700" fill="#1e293b" text-anchor="middle">backup-drill.sh</text>
<text x="765.0" y="238.5" font-size="11" fill="#64748b" text-anchor="middle">sections 06–07</text>
<polyline points="765,200 765,176 740.0,176 740.0,152" fill="none" stroke="#0d9488" stroke-width="1.5" stroke-dasharray="5,4" marker-end="url(#arr)"/>
<rect x="32" y="292" width="976" height="60" rx="8" fill="#7c3aed" stroke="#7c3aed" stroke-width="1.5"/>
<text x="520.0" y="315.5" font-size="13" font-weight="700" fill="#ffffff" text-anchor="middle">render.py  --vars site-vars.sh  --out site-docs/</text>
<text x="520.0" y="332.5" font-size="11" fill="#e9e4ff" text-anchor="middle">rendered site guide — always built</text>
</svg>