<svg xmlns="http://www.w3.org/2000/svg" width="1040" height="660" viewBox="0 0 1040 660" font-family="system-ui,-apple-system,'Segoe UI',sans-serif">
<rect width="1040" height="660" fill="#ffffff" rx="8"/>
<defs><marker id="arr" markerWidth="9" markerHeight="9" refX="7" refY="4.5" orient="auto"><path d="M0,0 L8,4.5 L0,9 z" fill="#64748b"/></marker></defs>
<text x="24" y="34" font-size="20" font-weight="700" fill="#1e293b">End result — 128-node BCM + Run:ai GPU cluster</text>
<text x="24" y="56" font-size="12" fill="#64748b">Teaser architecture. Every value below comes from 00-variables.sh in the real build.</text>
<rect x="370" y="76" width="300" height="64" rx="8" fill="#7c3aed" stroke="#7c3aed" stroke-width="1.5"/>
<text x="520.0" y="101.5" font-size="13" font-weight="700" fill="#ffffff" text-anchor="middle">BCM head node — 1× VM</text>
<text x="520.0" y="118.5" font-size="11" fill="#e9e4ff" text-anchor="middle">★ standard · Proxmox hypervisor failover</text>
<line x1="520" y1="140" x2="520" y2="162" stroke="#64748b" stroke-width="1.5" marker-end="url(#arr)"/>
<rect x="370" y="162" width="300" height="54" rx="8" fill="#fef3c7" stroke="#d97706" stroke-width="1.5"/>
<text x="520.0" y="182.5" font-size="12" font-weight="700" fill="#1e293b" text-anchor="middle">NFS export (on head node)</text>
<text x="520.0" y="199.5" font-size="11" fill="#64748b" text-anchor="middle">served over internalnet</text>
<line x1="520" y1="216" x2="520" y2="238" stroke="#64748b" stroke-width="1.5" marker-end="url(#arr)"/>
<rect x="40" y="246" width="960" height="40" rx="6" fill="#dbeafe" stroke="#3b82f6" stroke-width="1"/>
<text x="60" y="271" font-size="13" font-weight="700" fill="#1e293b">mgmtnet</text>
<text x="300" y="271" font-size="12" fill="#64748b">1GbE — provisioning · IPMI · management</text>
<rect x="40" y="294" width="960" height="40" rx="6" fill="#e0e7ff" stroke="#6366f1" stroke-width="1"/>
<text x="60" y="319" font-size="13" font-weight="700" fill="#1e293b">internalnet</text>
<text x="300" y="319" font-size="12" fill="#64748b">25GbE — cluster traffic · carries NFS storage</text>
<rect x="40" y="342" width="960" height="40" rx="6" fill="#fae8ff" stroke="#a855f7" stroke-width="1"/>
<text x="60" y="367" font-size="13" font-weight="700" fill="#1e293b">InfiniBand fabric</text>
<text x="300" y="367" font-size="12" fill="#64748b">GPU east-west — OFED · IPoIB</text>
<rect x="40" y="414" width="225" height="92" rx="8" fill="#ffffff" stroke="#cbd5e1" stroke-width="1.5"/>
<text x="152.5" y="445.0" font-size="13" font-weight="700" fill="#1e293b" text-anchor="middle">1–32</text>
<text x="152.5" y="462.0" font-size="11" fill="#64748b" text-anchor="middle">32× GPU workers</text>
<text x="152.5" y="479.0" font-size="11" fill="#64748b" text-anchor="middle">B300 DGX nodes</text>
<line x1="152" y1="382" x2="152" y2="414" stroke="#cbd5e1" stroke-width="1.5" stroke-dasharray="4,3"/>
<rect x="285" y="414" width="225" height="92" rx="8" fill="#ffffff" stroke="#cbd5e1" stroke-width="1.5"/>
<text x="397.5" y="445.0" font-size="13" font-weight="700" fill="#1e293b" text-anchor="middle">33–64</text>
<text x="397.5" y="462.0" font-size="11" fill="#64748b" text-anchor="middle">32× GPU workers</text>
<text x="397.5" y="479.0" font-size="11" fill="#64748b" text-anchor="middle">B300 DGX nodes</text>
<line x1="397" y1="382" x2="397" y2="414" stroke="#cbd5e1" stroke-width="1.5" stroke-dasharray="4,3"/>
<rect x="530" y="414" width="225" height="92" rx="8" fill="#ffffff" stroke="#cbd5e1" stroke-width="1.5"/>
<text x="642.5" y="445.0" font-size="13" font-weight="700" fill="#1e293b" text-anchor="middle">65–96</text>
<text x="642.5" y="462.0" font-size="11" fill="#64748b" text-anchor="middle">32× GPU workers</text>
<text x="642.5" y="479.0" font-size="11" fill="#64748b" text-anchor="middle">B300 DGX nodes</text>
<line x1="642" y1="382" x2="642" y2="414" stroke="#cbd5e1" stroke-width="1.5" stroke-dasharray="4,3"/>
<rect x="775" y="414" width="225" height="92" rx="8" fill="#ffffff" stroke="#cbd5e1" stroke-width="1.5"/>
<text x="887.5" y="445.0" font-size="13" font-weight="700" fill="#1e293b" text-anchor="middle">97–128</text>
<text x="887.5" y="462.0" font-size="11" fill="#64748b" text-anchor="middle">32× GPU workers</text>
<text x="887.5" y="479.0" font-size="11" fill="#64748b" text-anchor="middle">B300 DGX nodes</text>
<line x1="887" y1="382" x2="887" y2="414" stroke="#cbd5e1" stroke-width="1.5" stroke-dasharray="4,3"/>
<text x="520" y="536" font-size="12" fill="#64748b" text-anchor="middle">128 workers total · categories + software images per GPU node type</text>
<rect x="40" y="556" width="960" height="56" rx="8" fill="#ccfbf1" stroke="#0d9488" stroke-width="1.5"/>
<text x="520.0" y="577.5" font-size="13" font-weight="700" fill="#1e293b" text-anchor="middle">Kubernetes + Run:ai — on the GPU workers</text>
<text x="520.0" y="594.5" font-size="11" fill="#64748b" text-anchor="middle">14 operators · gateway · GPU burn-in validated</text>
</svg>